<?xml version="1.0" standalone="no"?>
<!DOCTYPE svg PUBLIC "-//W3C//DTD SVG 20010904//EN"
 "http://www.w3.org/TR/2001/REC-SVG-20010904/DTD/svg10.dtd">
<svg version="1.0" xmlns="http://www.w3.org/2000/svg"
 width="726.000000pt" height="726.000000pt" viewBox="0 0 726.000000 726.000000"
 preserveAspectRatio="xMidYMid meet">

<g transform="translate(0.000000,726.000000) scale(0.100000,-0.100000)"
fill="#000000" stroke="none">
<path d="M3435 6254 c-480 -52 -848 -179 -1209 -417 -174 -115 -264 -188 -410
-333 -224 -224 -375 -432 -506 -699 -97 -198 -140 -315 -191 -514 -63 -248
-74 -347 -73 -651 0 -280 13 -399 65 -604 174 -689 583 -1247 1185 -1618 425
-262 906 -389 1424 -375 226 6 352 22 538 68 558 137 996 408 1391 860 115
131 256 346 345 529 140 283 229 601 257 911 14 164 7 472 -16 619 -94 618
-389 1159 -860 1581 -311 278 -738 496 -1155 589 -175 39 -293 51 -520 55
-124 1 -243 1 -265 -1z m463 -144 c300 -31 560 -106 832 -237 619 -300 1092
-856 1288 -1513 80 -269 107 -483 98 -790 -4 -145 -12 -249 -25 -320 -100
-546 -322 -973 -705 -1355 -407 -405 -928 -651 -1501 -706 -149 -14 -462 -6
-605 16 -525 80 -1004 324 -1381 704 -377 380 -607 834 -696 1376 -25 157 -25
573 0 734 69 432 251 843 521 1181 86 107 275 295 386 384 287 228 624 391
981 475 72 17 200 37 334 54 67 9 382 6 473 -3z"/>
<path d="M3621 5981 c-34 -65 -36 -66 -107 -76 -27 -4 -53 -10 -57 -12 -5 -3
12 -27 38 -53 l47 -48 -7 -71 c-4 -39 -4 -71 0 -71 4 0 29 11 57 25 27 14 56
25 64 25 8 0 37 -11 64 -25 27 -14 52 -25 56 -25 4 0 4 33 0 73 l-6 72 45 45
c50 49 55 60 25 60 -10 0 -41 5 -67 10 -46 10 -51 14 -82 70 -18 33 -34 60
-35 60 -2 0 -17 -27 -35 -59z"/>
<path d="M2767 5763 c-3 -5 -8 -30 -12 -57 -10 -70 -10 -70 -75 -101 -63 -30
-71 -40 -42 -49 10 -4 39 -19 64 -35 44 -28 47 -33 53 -85 4 -31 12 -59 17
-62 5 -3 30 14 57 39 l47 44 63 -9 c34 -5 65 -7 69 -4 3 4 -7 33 -22 65 l-29
59 27 57 c14 32 26 62 26 67 0 10 -69 4 -112 -8 -11 -3 -35 11 -66 40 -50 47
-58 51 -65 39z"/>
<path d="M4477 5724 c-31 -30 -53 -44 -65 -40 -46 13 -112 18 -112 7 0 -6 12
-35 27 -66 l27 -55 -27 -55 c-15 -31 -27 -60 -27 -66 0 -6 26 -8 73 -3 l72 6
40 -41 c21 -23 44 -41 51 -41 7 0 15 22 19 53 10 70 15 77 79 112 31 17 56 33
56 36 0 3 -18 14 -40 24 -67 30 -87 56 -95 119 -4 31 -12 56 -19 56 -6 0 -32
-21 -59 -46z"/>
<path d="M3505 5398 c-595 -36 -1161 -421 -1430 -973 -52 -107 -105 -240 -105
-264 0 -7 11 -11 26 -9 23 3 30 13 53 78 176 482 572 868 1061 1033 200 68
287 81 540 81 252 0 333 -12 539 -80 480 -159 876 -541 1055 -1020 30 -78 37
-89 60 -92 31 -4 32 1 5 80 -59 173 -170 367 -306 535 -289 358 -751 602
-1188 628 -172 11 -187 11 -310 3z"/>
<path d="M1976 5158 l6 -73 -41 -40 c-23 -21 -41 -44 -41 -51 0 -6 21 -15 48
-18 75 -11 80 -14 114 -77 18 -32 35 -59 39 -59 3 0 14 18 24 40 30 67 56 87
119 95 31 4 56 12 56 18 0 5 -20 31 -44 57 l-43 46 8 64 c5 35 7 66 4 68 -3 3
-32 -7 -65 -23 l-61 -29 -54 27 c-31 15 -60 27 -66 27 -6 0 -8 -26 -3 -72z"/>
<path d="M5074 5188 c21 -103 20 -108 -31 -160 -54 -55 -52 -61 26 -73 56 -8
64 -15 98 -77 14 -26 30 -47 34 -46 5 2 23 28 41 58 32 52 35 55 91 66 32 6
61 14 64 18 4 3 -13 26 -36 50 l-44 45 7 70 c5 49 4 71 -4 71 -6 0 -34 -12
-62 -26 l-51 -26 -61 26 c-74 32 -78 32 -72 4z"/>
<path d="M3461 5108 c-10 -56 -22 -248 -15 -248 9 0 51 96 47 107 -4 12 33 24
108 37 21 4 41 12 47 19 14 18 24 82 16 111 -6 26 -8 26 -99 26 l-94 0 -10
-52z m166 -9 c14 -14 6 -39 -13 -39 -7 0 -32 -10 -54 -21 -23 -12 -43 -19 -45
-17 -7 7 17 72 29 80 17 12 71 9 83 -3z"/>
<path d="M3801 5141 c-10 -18 -9 -21 9 -21 19 0 21 -4 14 -32 -7 -35 -33 -111
-55 -165 -7 -18 -11 -35 -8 -38 9 -8 175 31 198 47 19 14 14 15 -54 10 -44 -3
-75 -1 -75 5 0 22 28 44 78 62 52 18 52 31 1 31 -23 0 -24 9 -3 38 8 12 25 22
38 22 12 0 45 8 72 17 l49 17 -40 7 c-22 4 -79 10 -127 14 -81 7 -87 6 -97
-14z"/>
<path d="M3214 5098 c-3 -4 -13 -8 -23 -8 -31 0 -41 -24 -49 -114 -8 -85 -8
-87 21 -121 16 -20 43 -43 60 -52 31 -15 31 -15 57 16 69 82 90 184 50 249
-11 17 -23 32 -27 33 -41 6 -85 4 -89 -3z m81 -58 c28 -31 14 -106 -28 -148
-58 -57 -90 -17 -68 84 8 35 18 54 27 54 8 0 17 7 20 15 8 21 27 19 49 -5z"/>
<path d="M4150 5073 c0 -9 -18 -41 -41 -70 -22 -30 -50 -76 -60 -101 -11 -26
-24 -55 -30 -64 -19 -36 10 -17 54 34 49 57 64 57 73 -1 4 -26 21 -54 56 -92
27 -30 47 -45 43 -34 -4 11 -10 41 -14 67 -4 26 -15 58 -24 72 -22 33 -22 36
9 36 30 0 122 26 144 40 13 9 9 16 -20 41 -84 72 -190 113 -190 72z m92 -79
c40 -21 25 -35 -44 -41 l-53 -5 29 31 c17 17 31 31 33 31 2 0 18 -7 35 -16z"/>
<path d="M2935 4961 c-112 -34 -148 -57 -128 -83 5 -7 18 -44 28 -83 10 -38
33 -99 51 -135 l33 -65 -6 82 -6 82 37 -11 c20 -6 36 -15 36 -20 0 -4 37 -8
83 -8 l82 0 -65 35 c-35 19 -74 35 -86 35 -33 0 -38 16 -17 48 27 40 53 100
53 122 0 24 -15 24 -95 1z m18 -100 c-5 -3 -17 -19 -27 -34 -21 -34 -25 -32
-31 17 -4 33 -2 37 28 49 29 13 32 12 35 -6 2 -11 0 -22 -5 -26z"/>
<path d="M4523 4875 c20 -14 37 -29 37 -33 0 -4 -14 -16 -30 -26 -17 -9 -28
-21 -26 -25 3 -4 -17 -25 -44 -46 -27 -22 -48 -40 -47 -42 4 -3 139 37 161 49
13 7 15 12 7 17 -7 5 1 14 24 26 33 19 36 19 64 2 38 -22 41 -22 41 6 0 36
-115 97 -183 97 l-42 0 38 -25z"/>
<path d="M2554 4841 c-116 -81 -160 -121 -144 -131 5 -3 19 -27 30 -54 12 -26
40 -67 62 -89 21 -23 55 -72 73 -109 32 -61 55 -92 55 -71 0 39 -24 138 -35
150 -20 19 -8 40 62 116 55 61 64 88 38 123 -8 10 -15 26 -15 34 0 8 -17 27
-38 41 l-37 26 -51 -36z m94 -74 c2 -10 -4 -27 -13 -37 -10 -11 -29 -43 -43
-72 l-25 -53 -18 60 -19 60 37 33 c41 34 76 38 81 9z"/>
<path d="M4811 4693 c6 -40 -54 -106 -131 -144 -36 -18 -74 -39 -85 -47 -18
-13 -15 -14 34 -8 29 3 60 11 68 18 9 7 53 13 106 15 77 3 159 17 176 30 3 2
-8 17 -24 33 -23 24 -30 27 -39 16 -6 -8 -37 -17 -69 -21 l-59 -7 17 25 c9 14
28 33 43 43 l26 17 -23 18 c-24 20 -42 25 -40 12z"/>
<path d="M2880 4192 c-74 -38 -171 -92 -215 -122 -102 -68 -297 -224 -286
-228 5 -2 36 13 69 33 33 19 63 35 65 35 3 0 -27 -30 -65 -67 -39 -38 -85 -92
-104 -120 -49 -77 -104 -189 -104 -214 0 -11 -18 -59 -40 -106 -22 -47 -40
-91 -40 -97 0 -11 111 -100 173 -139 15 -10 27 -26 27 -37 0 -32 39 -25 152
26 147 66 291 127 436 185 69 28 138 57 152 64 25 14 25 14 -15 15 l-40 0 30
24 c39 32 29 40 -26 21 -152 -54 -479 -125 -534 -116 -34 5 -38 9 -41 40 -5
43 -9 47 -30 30 -16 -13 -17 -11 -11 25 17 104 236 354 419 477 35 23 72 52
83 64 11 11 72 52 135 90 132 80 127 94 -20 51 -47 -13 -87 -23 -89 -20 -2 2
16 26 41 52 37 39 45 54 41 75 -3 15 -10 27 -17 27 -6 0 -72 -31 -146 -68z"/>
<path d="M4793 4247 c22 -6 36 -15 32 -19 -3 -3 10 -11 29 -18 20 -6 38 -15
41 -20 6 -10 -158 -250 -209 -303 -20 -22 -34 -42 -32 -46 3 -4 -4 -17 -14
-30 -22 -30 -22 -29 -45 109 -21 119 -21 225 0 256 8 13 15 25 15 27 0 12
-103 13 -192 1 -57 -7 -110 -14 -118 -14 -24 -1 20 -30 45 -30 12 0 33 -6 48
-12 27 -13 32 -28 53 -153 4 -22 11 -48 16 -59 6 -12 6 -22 0 -28 -6 -6 -3
-35 9 -81 25 -95 22 -164 -12 -267 -15 -47 -55 -180 -88 -295 -33 -116 -67
-230 -75 -254 -9 -24 -16 -45 -16 -47 0 -15 24 6 80 71 39 45 67 70 71 63 9
-14 45 57 95 183 20 52 51 121 69 154 18 33 39 79 46 102 10 35 19 45 50 57
27 11 64 47 132 128 52 62 106 125 121 140 15 14 29 39 32 54 7 36 8 37 44 37
27 0 31 5 46 56 22 77 50 130 92 174 26 26 31 37 20 37 -9 0 -24 8 -34 17 -15
16 -42 18 -203 20 -159 2 -180 1 -148 -10z"/>
<path d="M3400 4240 c0 -5 -20 -15 -45 -21 -43 -11 -70 -29 -44 -29 7 0 4 -6
-7 -14 -15 -12 -17 -17 -6 -27 19 -20 15 -66 -18 -190 -16 -63 -30 -128 -30
-145 0 -17 -9 -64 -20 -105 l-20 -74 30 -26 30 -26 -11 -79 c-5 -43 -21 -126
-34 -184 -13 -58 -29 -134 -34 -170 -6 -36 -14 -80 -17 -98 -7 -46 10 -34 36
24 33 77 212 394 221 394 4 0 25 -19 46 -42 21 -24 63 -67 93 -97 l55 -53 -57
4 c-31 3 -55 1 -52 -4 10 -16 110 -85 219 -150 104 -61 305 -168 319 -168 18
0 -227 373 -290 440 -51 54 -48 58 22 34 25 -8 48 -13 51 -11 5 6 -40 38 -87
62 -54 27 -201 138 -192 145 4 4 30 15 57 25 28 10 136 51 240 92 105 41 237
93 295 115 58 23 110 47 116 54 8 10 22 12 45 8 l34 -7 -25 27 c-14 15 -37 35
-52 44 -16 9 -28 21 -28 27 0 5 -62 40 -138 77 -195 97 -212 101 -176 49 16
-22 16 -23 -5 -16 -22 7 -22 5 5 -34 25 -38 26 -44 13 -68 -17 -32 -151 -134
-229 -173 -30 -16 -98 -55 -150 -88 -52 -33 -97 -59 -99 -57 -9 9 48 158 95
250 28 55 54 111 59 125 4 14 20 42 36 63 27 34 28 37 10 37 -11 0 -24 7 -29
15 -4 9 -33 20 -68 25 -32 5 -75 14 -94 20 -44 13 -70 13 -70 0z"/>
<path d="M1970 3142 c0 -23 54 -162 98 -254 87 -180 264 -421 388 -528 242
-209 442 -321 714 -400 202 -59 506 -77 746 -45 554 73 1068 455 1318 979 50
104 96 223 96 247 0 6 -12 9 -26 7 -23 -3 -30 -13 -54 -81 -174 -477 -575
-867 -1060 -1031 -196 -66 -288 -80 -530 -80 -139 -1 -242 4 -290 12 -606 109
-1111 530 -1320 1102 -24 65 -31 75 -54 78 -14 2 -26 -1 -26 -6z"/>
<path d="M2730 2899 c0 -5 -7 -9 -15 -9 -8 0 -15 -6 -15 -13 0 -7 -35 -37 -77
-67 -70 -48 -248 -218 -239 -227 2 -3 50 19 106 47 56 28 103 50 105 48 8 -10
13 -108 5 -103 -6 4 -10 1 -10 -6 0 -19 82 -219 90 -219 11 0 19 227 10 261
l-9 30 52 -8 c63 -10 214 -9 223 0 15 15 -48 109 -140 211 -36 40 -86 72 -86
55z m63 -167 c34 -35 34 -52 1 -52 -37 0 -134 30 -134 41 0 12 58 38 86 39 11
0 32 -13 47 -28z"/>
<path d="M4765 2874 c-17 -16 -59 -55 -94 -86 -58 -53 -62 -59 -56 -88 7 -30
8 -31 26 -14 17 16 19 15 41 -22 13 -20 41 -71 63 -113 39 -71 65 -99 65 -69
0 7 19 45 41 83 23 39 45 88 49 110 l8 40 -25 -30 c-13 -16 -36 -47 -50 -67
-30 -44 -36 -46 -50 -16 -7 17 -4 36 14 80 30 75 29 91 -3 51 -32 -41 -40 -41
-48 -3 -4 23 2 44 25 85 40 70 37 99 -6 59z"/>
<path d="M4480 2626 c-115 -32 -162 -68 -131 -101 4 -6 14 -39 21 -75 7 -36
25 -92 40 -125 15 -33 32 -71 38 -85 9 -20 10 -6 6 67 l-7 92 34 -9 c18 -5 36
-14 39 -20 4 -7 41 -10 96 -8 l89 3 -50 23 c-27 12 -56 29 -65 36 -8 7 -32 16
-52 20 l-37 7 28 42 c22 33 61 125 61 144 0 7 -68 0 -110 -11z m30 -83 c-1
-10 -16 -36 -35 -57 l-35 -39 0 45 c0 37 4 47 23 56 33 16 47 14 47 -5z"/>
<path d="M2980 2565 l-25 -15 23 -6 c12 -3 22 -9 22 -13 0 -10 -50 -87 -104
-161 l-48 -65 111 -8 c87 -5 118 -4 138 6 25 14 25 14 -22 20 -26 4 -66 12
-88 18 -39 10 -40 11 -21 30 14 13 42 21 94 27 l75 8 -42 14 c-49 15 -53 23
-19 45 16 11 38 14 73 11 27 -3 62 -2 79 3 26 8 27 9 9 16 -11 4 -61 25 -112
46 -103 43 -108 44 -143 24z"/>
<path d="M4100 2480 c0 -5 -8 -10 -19 -10 -30 0 -39 -21 -51 -118 -12 -92 -11
-93 14 -127 14 -18 42 -43 63 -56 l37 -23 44 50 c24 27 50 63 58 81 29 66 10
179 -34 202 -26 14 -112 14 -112 1z m89 -59 c22 -17 23 -23 18 -72 -5 -43 -13
-60 -43 -90 -31 -32 -39 -36 -55 -26 -27 17 -29 28 -17 102 10 60 14 68 40 77
15 6 25 14 22 19 -9 15 9 10 35 -10z"/>
<path d="M5166 2418 c-34 -64 -37 -65 -104 -74 -29 -3 -55 -11 -58 -16 -4 -6
15 -31 41 -58 46 -47 47 -48 40 -96 -4 -27 -9 -57 -12 -66 -6 -24 7 -23 73 9
l56 26 54 -26 c30 -15 59 -27 65 -27 7 0 8 24 3 71 l-7 70 43 44 c23 24 40 48
36 53 -3 5 -30 13 -60 16 -59 8 -72 18 -105 84 -12 23 -25 42 -29 42 -5 0 -21
-24 -36 -52z"/>
<path d="M2062 2401 c-31 -56 -35 -60 -83 -70 -27 -6 -57 -11 -64 -11 -26 0
-16 -25 26 -65 l41 -40 -6 -72 c-3 -44 -2 -73 4 -73 5 0 34 12 65 27 l55 27
55 -27 c31 -15 60 -27 66 -27 10 0 5 66 -7 112 -3 11 11 35 40 66 25 27 46 54
46 59 0 6 -23 14 -52 17 -70 10 -78 16 -113 80 -16 31 -32 56 -35 56 -3 0 -20
-27 -38 -59z"/>
<path d="M3480 2423 c-148 -14 -139 -11 -163 -60 -21 -43 -21 -45 -3 -58 10
-8 42 -21 72 -31 30 -9 54 -19 54 -23 0 -3 -39 -26 -85 -50 -136 -71 -135 -92
1 -50 73 22 137 54 192 94 l33 24 -38 10 c-21 5 -71 15 -110 21 -40 7 -73 16
-73 20 0 5 7 16 16 24 17 18 120 23 126 6 2 -6 16 -6 41 1 26 7 37 15 37 29 0
11 -6 20 -14 20 -7 0 -19 7 -26 15 -7 8 -15 14 -19 13 -3 0 -22 -3 -41 -5z"/>
<path d="M3799 2416 c-59 -10 -149 -54 -149 -73 0 -3 20 -3 45 0 53 8 61 -2
39 -44 -11 -22 -13 -34 -5 -38 10 -7 -3 -78 -25 -135 -13 -34 10 -10 71 74 45
64 55 84 45 90 -12 7 -11 15 3 44 15 33 21 36 57 36 37 0 40 2 30 20 -17 32
-40 38 -111 26z"/>
<path d="M2766 1922 c-3 -5 -8 -31 -12 -60 -7 -57 -17 -69 -88 -104 l-50 -25
30 -18 c107 -66 102 -61 109 -120 4 -30 12 -58 17 -61 5 -3 31 15 59 41 31 29
56 44 67 41 46 -12 112 -17 112 -7 0 6 -12 35 -26 64 l-27 54 27 58 c14 31 26
61 26 66 0 5 -33 6 -72 3 l-73 -6 -40 41 c-40 42 -50 47 -59 33z"/>
<path d="M4479 1886 l-45 -43 -63 9 c-34 5 -65 7 -69 4 -3 -4 7 -33 23 -66
l29 -60 -29 -60 c-16 -33 -26 -62 -23 -65 2 -3 33 -1 68 4 l64 8 46 -43 c26
-24 52 -44 58 -44 5 0 13 24 17 53 10 71 16 80 80 113 30 16 55 31 55 34 0 3
-28 21 -63 40 l-62 36 -9 62 c-5 34 -14 62 -20 62 -6 0 -31 -20 -57 -44z"/>
<path d="M3535 1579 l7 -71 -47 -48 c-26 -26 -43 -50 -38 -53 4 -2 30 -8 57
-12 70 -10 74 -13 101 -64 41 -79 39 -79 76 -12 33 59 35 61 89 71 89 18 88
16 35 70 l-48 49 9 66 c6 36 7 68 3 71 -5 3 -31 -7 -58 -21 -62 -31 -70 -31
-131 0 -27 14 -52 25 -56 25 -3 0 -3 -32 1 -71z"/>
</g>
</svg>
